<svg width="50" height="50" viewBox="0 0 50 50" fill="none" xmlns="http://www.w3.org/2000/svg">
<rect x="0.5" y="0.5" width="49" height="49" rx="24.5" stroke="#DD4839"/>
<path fill-rule="evenodd" clip-rule="evenodd" d="M36.7858 22.6048H25.2536C25.2536 23.8041 25.2535 26.2025 25.2462 27.4018H31.9289C31.6728 28.6012 30.7648 30.2805 29.482 31.126C29.482 31.126 29.4795 31.1331 29.4771 31.1319C27.7715 32.2581 25.5207 32.5136 23.8494 32.1778C21.2298 31.6573 19.1566 29.7575 18.3148 27.3444C18.3197 27.3408 18.3234 27.3075 18.3271 27.3051C17.8002 25.8084 17.8002 23.8041 18.3271 22.6048H18.3259C19.0047 20.4004 21.1403 18.3892 23.7636 17.8387C25.8735 17.3914 28.2543 17.8757 30.0052 19.5139C30.238 19.2861 33.2276 16.367 33.4518 16.1296C27.4701 10.7122 17.8921 12.6179 14.3082 19.6135H14.3069C14.3069 19.6135 14.3082 19.6138 14.3008 19.627C12.5279 23.0631 12.6014 27.1119 14.3131 30.3837C14.3082 30.3873 14.3045 30.3894 14.3008 30.393C15.852 33.4033 18.6751 35.712 22.0764 36.5911C25.6898 37.5386 30.2882 36.891 33.3685 34.105L33.3722 34.1085C35.9821 31.7578 37.6068 27.7535 36.7858 22.6048Z" fill="#DD4839"/>
</svg>
