<svg width="284" height="74" viewBox="0 0 284 74" fill="none" xmlns="http://www.w3.org/2000/svg">
<g clip-path="url(#clip0_11_197)">
<path d="M283.642 50.679C283.461 50.4203 283.256 50.1798 283.028 49.961L282.056 49.7296C281.961 49.7179 281.865 49.7179 281.77 49.7296C281.677 49.8346 281.57 49.9259 281.451 50.0009C281.364 50.0009 281.356 50.0009 281.356 50.0009C281.356 50.1205 281.284 50.2083 281.093 50.2881C281.053 50.2967 281.013 50.2967 280.973 50.2881C280.631 50.6232 280.28 50.9663 279.802 51.3971C279.689 51.5126 279.549 51.6 279.396 51.6524C278.249 52.2827 277.102 52.913 275.732 53.5752L275.087 53.663C272.618 54.6682 270.244 54.2853 267.862 53.0805C267.807 52.9688 267.783 52.9928 267.783 52.9928C265.608 52.2508 264.597 50.5115 263.952 48.469C263.864 48.1898 264.358 47.735 264.82 47.352H265.489C265.923 47.2141 266.365 47.0996 266.811 47.009C267.241 46.9691 267.448 46.9371 267.663 46.9052C267.812 46.8106 267.977 46.7431 268.149 46.7058L268.755 46.6499C271.335 45.5569 273.908 44.4638 276.6 43.3628H276.728C277.001 43.1165 277.297 42.8974 277.612 42.7086C277.723 42.7086 277.7 42.7086 277.7 42.7086C278.496 41.8549 279.332 41.0012 280.28 39.9959C280.639 39.4853 280.87 39.1183 281.077 38.7592C281.109 38.6111 281.162 38.4686 281.236 38.3364C281.295 38.2638 281.349 38.1864 281.395 38.105C282.096 35.5599 282.24 33.0626 280.686 30.5973C280.686 30.4776 280.686 30.4856 280.686 30.4856C280.351 30.2068 280.034 29.9056 279.739 29.584C279.739 29.4803 279.691 29.4963 279.691 29.4963C279.285 29.225 278.894 28.9617 278.416 28.5947C278.416 28.483 278.361 28.507 278.361 28.507C271.662 25.6507 265.616 26.9751 259.969 31.5547C259.77 31.7462 259.682 31.8021 259.579 31.818C259.413 32.0577 259.215 32.2726 258.989 32.4563C258.878 32.4563 258.91 32.4563 258.91 32.4563C258.758 32.6797 258.607 32.8951 258.336 33.2541C258.065 33.6132 257.954 33.6291 257.834 33.7568C257.834 33.8765 257.834 33.9722 257.603 34.1477C257.372 34.3232 257.38 34.427 257.277 34.4669C256.99 34.9695 256.703 35.4721 256.321 36.0625C256.225 36.1184 256.209 36.1104 256.209 36.1104C255.843 36.9641 255.477 37.8178 255.015 38.8151C254.919 38.9667 254.847 39.1023 254.847 39.1023C254.829 39.2639 254.789 39.4223 254.728 39.573L254.592 39.7725C254.425 40.5704 254.25 41.4161 254.011 42.4373C253.943 42.6434 253.89 42.8541 253.852 43.0676C253.852 44.5995 253.939 46.1393 253.852 47.6712C253.722 48.3801 253.451 49.0556 253.055 49.6578C252.936 49.6977 252.968 49.7296 252.968 49.7296C252.044 50.8306 251.12 51.9237 250.076 53.0167C249.957 53.0167 249.965 53.0167 249.965 53.0167C248.993 53.1523 247.83 53.6789 247.121 53.3119C246.412 52.9449 246.054 51.6604 246.07 50.7907C246.206 48.9656 246.472 47.1525 246.866 45.3654C246.97 45.0064 247.002 44.8627 247.033 44.7191C247.615 41.3602 248.196 37.9933 248.857 34.4349C248.969 34.0839 249.001 33.9403 249.033 33.8046C249.718 29.8793 250.411 25.9618 251.175 21.837C251.287 21.4859 251.319 21.3423 251.359 21.1987C251.486 20.2652 251.621 19.3318 251.836 18.1988C251.956 17.8557 251.988 17.7121 252.028 17.5685C252.267 16.0845 252.513 14.6005 252.824 12.8772C252.886 12.449 252.92 12.0173 252.928 11.5847C252.832 11.3214 252.737 11.0581 252.617 10.6273C252.617 10.4597 252.561 10.3161 252.561 10.3161C249.957 7.771 246.986 8.4013 243.744 9.28691C243.597 9.37499 243.463 9.48232 243.346 9.60604C243.346 9.66189 243.346 9.71774 243.346 9.96507C243.346 10.2124 243.346 10.4518 243.298 10.6033C243.353 10.8358 243.38 11.0743 243.377 11.3134C243.314 11.6166 243.298 11.7602 243.274 11.9118C243.274 12.5102 243.21 13.1165 243.091 13.9383C242.963 14.4011 242.923 14.6404 242.876 14.8798C242.525 16.8106 242.183 18.7414 241.76 20.8796C241.657 21.2386 241.617 21.3822 241.585 21.5258C241.235 23.4566 240.892 25.3874 240.462 27.5176C240.392 27.7216 240.334 27.9294 240.287 28.1399C240.247 28.6107 240.207 29.0734 240.143 29.6878C239.012 28.9458 238.073 28.3235 236.957 27.5974C236.874 27.529 236.783 27.4701 236.687 27.4219C233.394 26.6311 229.929 27.006 226.881 28.483H226.754C225.957 29.0335 225.161 29.5761 224.229 30.1266C224.102 30.1266 224.125 30.1266 224.125 30.1266C224.05 30.2353 223.955 30.3298 223.847 30.4058C223.813 30.4143 223.777 30.4143 223.743 30.4058C223.042 31.1478 222.341 31.8898 221.545 32.6797C221.505 32.702 221.462 32.7181 221.417 32.7275C221.353 32.8669 221.273 32.9981 221.178 33.1185C221.035 33.3259 220.955 33.3977 220.836 33.4297C220.461 34.052 220.039 34.6823 219.585 35.4482L219.123 36.0466C218.762 36.7235 218.366 37.3812 217.936 38.0173C217.825 38.0173 217.833 38.0173 217.833 38.0173C216.805 38.8151 215.77 39.5332 214.575 40.331L214.288 40.3869L211.899 41.5038V37.371C211.899 36.9721 211.899 36.8205 211.899 36.6769C211.349 35.3285 210.808 33.9722 210.25 32.4962C210.25 32.3765 210.25 32.3845 210.25 32.3845C210.001 32.1115 209.78 31.8149 209.589 31.4989C209.589 31.3792 209.589 31.4111 209.589 31.4111C209.071 30.9164 208.561 30.4218 207.996 29.8154C207.996 29.7117 207.996 29.7197 207.996 29.7197C203.089 26.3528 197.84 26.257 192.217 28.0841L191.922 28.1399C191.412 28.4431 190.902 28.7543 190.265 29.0575C190.146 29.0575 190.162 29.0575 190.162 29.0575L188.178 30.5734C187.931 30.717 187.836 30.7728 187.732 30.8207C187.629 30.8686 187.661 31.0122 187.485 31.092C187.441 31.0989 187.395 31.0989 187.35 31.092C186.553 31.9616 185.757 32.8313 184.897 33.7488C184.785 33.7887 184.817 33.8046 184.817 33.8046C184.22 34.8738 183.614 35.9429 182.913 37.1476C182.81 37.2832 182.73 37.4109 182.73 37.4109C182.595 37.8178 182.459 38.2087 182.236 38.7752C182.176 38.8668 182.123 38.9628 182.077 39.0624C181.703 40.9852 181.32 42.908 180.89 45.0782C180.819 46.1233 180.803 46.9132 180.795 47.6951C180.778 48.0696 180.722 48.4413 180.627 48.8041L180.46 49.0115C180.309 49.3449 180.13 49.6651 179.926 49.9689C179.823 49.9689 179.823 50.0168 179.823 50.0168C179.568 50.4237 179.313 50.8147 178.931 51.3891C178.636 51.7082 178.461 51.8838 178.286 52.0673C177.95 52.4124 177.596 52.74 177.226 53.0486C176.876 53.2002 176.7 53.2561 176.517 53.3199C175.645 53.3157 174.775 53.2491 173.913 53.1204C173.913 52.9928 173.849 53.0167 173.849 53.0167C173.666 51.7801 173.228 50.5195 173.363 49.3227C173.658 46.7297 174.255 44.1686 174.797 41.3921C174.9 41.0411 174.932 40.8975 174.964 40.7539C175.195 38.5119 175.569 36.278 175.609 34.036C175.681 30.0468 173.164 27.398 169.181 27.0629C166.515 26.8202 163.854 27.5889 161.726 29.217C161.595 29.3287 161.444 29.4129 161.28 29.4644C160.698 29.9909 160.109 30.5255 159.424 31.0601L159.32 31.1C159.078 31.4704 158.812 31.8249 158.524 32.1611C158.42 32.209 158.42 32.2329 158.42 32.2329C158.28 32.4604 158.126 32.6789 157.958 32.8871C157.654 33.1397 157.335 33.3741 157.003 33.5892C157.003 31.81 157.003 30.3978 157.003 28.9139V28.7703C156.206 28.2756 155.338 27.7809 154.326 27.1746C154.125 27.0999 153.921 27.036 153.713 26.9831C152.407 27.1028 151.1 27.2304 149.794 27.3341C148.488 27.4379 147.922 28.0283 148.042 29.3766C148.054 30.1652 147.973 30.9524 147.803 31.7223C147.715 32.0813 147.691 32.2329 147.667 32.3765C147.532 33.31 147.396 34.2435 147.181 35.3844C147.07 35.7354 147.038 35.879 147.006 36.0147C146.21 40.0039 146.313 44.1606 144.218 47.9105C144.107 47.9584 144.123 47.9743 144.123 47.9743C144.06 48.142 143.98 48.3025 143.884 48.4531L143.167 49.3147C142.115 50.4716 141.223 51.8519 139.981 52.7135C139.515 52.9911 138.993 53.1616 138.453 53.2127C137.913 53.2637 137.368 53.1941 136.858 53.0087C136.245 52.7135 136.165 51.2455 135.903 50.2881C135.896 49.9408 135.961 49.5959 136.094 49.2748C136.163 49.0653 136.222 48.8523 136.269 48.6366C136.747 45.9398 137.217 43.2431 137.766 40.331C137.878 39.9799 137.91 39.8363 137.942 39.7007C138.085 38.9029 138.221 38.0412 138.428 37.012C138.531 36.6689 138.563 36.5253 138.595 36.3817C138.778 34.052 138.953 31.7302 139.144 29.241C139.144 29.0734 139.144 29.1053 139.144 29.1053C138.213 28.475 137.289 27.8527 136.165 27.1586C135.831 27.0629 135.688 27.031 135.544 26.999C133.864 27.2304 132.175 27.4698 130.319 27.7969C130.163 27.8778 130.02 27.9828 129.897 28.108C129.738 30.1346 129.57 32.1691 129.331 34.403C129.228 34.7621 129.204 34.9057 129.172 35.0573C128.375 38.8869 127.579 42.7086 126.719 46.5941C126.599 46.6499 126.623 46.6659 126.623 46.6659C126.447 46.9897 126.251 47.3016 126.034 47.5994L125.938 47.6472C125.864 47.801 125.748 47.9309 125.604 48.0222C124.054 50.5987 121.609 52.511 118.738 53.3917C114.946 54.5645 111.983 52.8492 111.497 49.1472C111.322 47.2257 111.322 45.2922 111.497 43.3708C111.622 42.7893 111.946 42.2699 112.413 41.9027C117.454 37.5053 121.614 32.1876 124.672 26.2331C126.536 22.5072 128.025 18.6297 127.914 14.3771C127.746 7.50771 122.218 4.42804 116.348 7.9944C114.79 8.94674 113.436 10.1997 112.365 11.6804C105.332 21.5418 102.433 32.8233 101.485 44.7112C101.19 48.3812 99.0953 50.9024 96.411 52.9688C96.0128 53.2249 95.5591 53.3817 95.0879 53.4262C94.6168 53.4706 94.1418 53.4013 93.7029 53.2241C93.0497 52.8332 92.8506 51.6285 92.5718 50.695C92.5218 50.2547 92.5652 49.8088 92.6993 49.3865C93.6391 44.1766 94.5153 38.9587 95.5508 33.7647C96.5863 28.5708 95.1924 26.64 89.2503 27.1267C88.6427 27.1168 88.0416 27.2536 87.498 27.5256C86.9492 27.871 86.5574 28.4181 86.4067 29.0495C86.092 34.6189 84.9205 40.1062 82.9339 45.3175C81.8864 47.6745 80.5657 49.8998 78.9991 51.9476C78.0034 53.3518 76.0599 53.7587 75.0165 53.1045C73.6305 52.2428 73.5668 50.8705 73.8137 49.4344C74.2518 46.8813 74.674 44.3282 75.1359 41.7751C75.7015 38.6236 76.3626 35.4881 76.8644 32.3366C77.4299 28.7463 76.0679 27.0948 72.4198 27.0708C71.1032 27.0859 69.7931 27.2573 68.5168 27.5815C68.2697 27.6994 68.0534 27.8733 67.8847 28.0892C67.7161 28.3052 67.5998 28.5574 67.5451 28.8261C67.0751 31.7622 66.7486 34.7142 66.3105 37.6582C65.514 43.0836 64.6617 48.477 60.1295 52.3385C58.9506 53.3358 57.955 54.5326 56.8 55.5299C51.4952 60.2053 45.5929 63.7317 38.48 64.7051C32.992 65.4551 27.6553 65.136 22.9876 61.6893C16.8146 57.1495 14.6321 50.6312 14.9587 43.3788C15.1511 37.7023 16.4766 32.1219 18.8569 26.9669C21.2373 21.8118 24.6243 17.1865 28.8182 13.3639C33.1513 9.2869 38.2251 6.60615 44.4619 7.12475C47.648 7.39602 50.1172 9.29488 50.7146 11.9118C51.2801 14.3931 49.918 17.2254 47.2656 18.8371C46.6749 19.1448 46.1978 19.6336 45.904 20.2321C45.6102 20.8307 45.5152 21.5076 45.6328 22.1641C45.7126 23.1047 46.0532 24.0041 46.6162 24.7612C47.1791 25.5182 47.942 26.1026 48.8188 26.4485C53.128 28.3554 58.1382 26.1533 60.225 21.4301C63.897 13.1165 59.6914 4.23655 50.6668 1.3324C43.7769 -0.877623 36.9108 -0.263282 30.2201 2.08238C21.8013 5.14008 14.4615 10.6016 9.10772 17.792C3.75394 24.9824 0.620823 33.5865 0.0955808 42.541C-0.517741 54.6363 3.90296 64.3301 14.8711 70.1704C23.354 74.6861 32.3946 74.8377 41.5466 72.2926C47.8551 70.5294 53.0962 66.963 57.8275 62.535C57.9125 62.3955 58.0141 62.2669 58.1302 62.152C58.6798 61.6653 59.1019 61.2824 59.5161 60.8994C59.5683 60.7834 59.6412 60.678 59.7312 60.5882C59.8109 60.5882 59.8268 60.5882 59.8268 60.5882C59.8856 60.4722 59.9637 60.3669 60.0578 60.2771H60.1454C60.1957 60.1559 60.275 60.049 60.3764 59.9659C60.464 59.9659 60.4401 59.9659 60.4401 59.9659C60.4926 59.8439 60.5748 59.7369 60.6791 59.6548C60.7667 59.6548 60.7507 59.6069 60.7507 59.6069C60.9533 59.277 61.1796 58.9624 61.4278 58.6654L61.8101 58.3303C61.857 58.2071 61.9336 58.0975 62.0331 58.0112C62.1208 58.0112 62.1048 57.9713 62.1048 57.9713L64.2793 54.7799C65.4343 56.232 66.5574 57.6442 67.7124 59.1761C67.7124 59.2878 67.7681 59.2638 67.7681 59.2638L70.7391 60.2053C70.9511 60.2683 71.1665 60.3189 71.3843 60.3569C73.0491 60.1095 74.7217 59.8622 76.5299 59.6229C76.6732 59.6229 76.6573 59.6229 76.6573 59.6229C77.1689 59.2675 77.7008 58.9425 78.2503 58.6495C78.3698 58.6495 78.3539 58.6495 78.3539 58.6495C79.3814 57.5724 80.4089 56.4953 81.54 55.3863C81.6515 55.3863 81.6276 55.3305 81.6276 55.3305L82.7985 53.2241C83.834 55.0751 84.8615 56.9261 85.9209 58.8888C85.9209 59.0005 85.9766 58.9766 85.9766 58.9766C87.4672 59.8207 89.141 60.2873 90.8526 60.336C92.5642 60.3846 94.2618 60.0139 95.7977 59.2558L96.4907 58.9686C96.7709 58.7255 97.0752 58.5116 97.3987 58.3303C97.5182 58.3303 97.4943 58.3303 97.4943 58.3303C98.7449 56.9261 99.9954 55.5219 101.373 54.0619C101.493 54.014 101.437 54.006 101.437 54.006C101.66 53.6151 101.875 53.2082 102.154 52.7135C102.903 54.1098 103.524 55.2826 104.153 56.591C104.153 56.7187 104.153 56.6788 104.153 56.6788C104.284 56.7811 104.409 56.8903 104.528 57.0059L105.117 57.724C105.254 57.7943 105.382 57.8799 105.499 57.9793C105.706 58.1389 105.77 58.2186 105.81 58.3303C106.13 58.5098 106.436 58.7125 106.726 58.9367C106.774 59.0325 106.782 59.0324 106.782 59.0324C107.019 59.1099 107.25 59.2032 107.475 59.3117C107.777 59.5032 107.945 59.5909 108.104 59.6867C108.813 59.8542 109.522 60.0298 110.43 60.2771C110.637 60.3409 110.847 60.3942 111.059 60.4366C113.927 60.4366 116.77 60.325 119.622 59.0644L119.948 59.0085C120.055 58.8973 120.182 58.8078 120.323 58.7452L120.617 58.6734L126.305 54.2055C126.918 55.4182 127.595 56.7586 128.296 58.1947C128.296 58.3303 128.296 58.2984 128.296 58.2984C128.411 58.3621 128.508 58.4558 128.575 58.5697C128.575 58.6575 128.614 58.6415 128.614 58.6415C129.037 58.9048 129.459 59.1601 130 59.5271L130.231 59.6947C132.697 60.5366 135.372 60.5366 137.838 59.6947C139.925 58.3303 141.821 57.0219 143.748 55.6416C143.748 55.9049 143.748 56.2081 143.748 56.5113C143.748 59.0165 144.481 59.95 146.934 60.1654C148.53 60.2829 150.135 60.2106 151.714 59.95C152.012 59.8377 152.279 59.6563 152.494 59.4205C152.708 59.1847 152.864 58.9014 152.948 58.5936C153.323 56.8703 153.442 55.0991 153.745 53.3678C154.541 48.6685 155.513 44.0011 158.006 39.8922C159.262 37.975 160.777 36.2407 162.506 34.7381C162.91 34.488 163.367 34.3354 163.839 34.2924C164.312 34.2495 164.788 34.3174 165.231 34.4908C165.732 34.7062 166.027 36.0147 165.963 36.7966C165.828 38.6077 165.414 40.3869 165.167 42.182C164.665 45.6127 163.932 49.0355 163.757 52.4901C163.542 56.7267 165.924 59.6707 169.643 60.2691C171.241 60.5801 172.889 60.5096 174.454 60.0632C176.019 59.6168 177.458 58.8072 178.652 57.7001C179.887 56.5671 180.938 55.2347 182.069 53.9981C182.184 54.0353 182.292 54.092 182.388 54.1656C182.535 54.3292 182.669 54.5054 182.786 54.6922C183.63 56.0872 184.757 57.2885 186.095 58.2178C187.433 59.1471 188.952 59.7835 190.552 60.0856C195.01 61.0516 199.668 60.2935 203.591 57.9633C203.987 57.6154 204.405 57.2929 204.842 56.9979C204.961 56.9979 204.945 56.9979 204.945 56.9979C205.011 56.882 205.101 56.7814 205.208 56.7027H205.296C206.092 55.8411 206.889 54.9794 207.829 54.0858C207.94 54.0858 207.916 54.03 207.916 54.03C208.713 52.53 209.549 51.0221 210.473 49.4663C210.569 49.4105 210.553 49.3865 210.553 49.3865C211.028 48.1438 211.584 46.9338 212.217 45.7643L212.791 45.6925C213.301 45.493 213.803 45.2936 214.48 45.0622C214.572 45.0568 214.665 45.0568 214.758 45.0622C215.029 44.8787 215.284 44.6713 215.555 44.5117C215.888 44.3748 216.228 44.2576 216.574 44.1606C216.24 49.5541 216.224 54.748 220.796 58.6176C220.836 58.7293 220.852 58.7133 220.852 58.7133C221.146 58.8649 221.449 59.0165 221.879 59.2878C222.174 59.5112 222.333 59.6149 222.485 59.7266C224.372 59.95 226.26 60.1654 228.411 60.3808C228.984 60.3329 229.287 60.293 229.598 60.2531C229.964 60.063 230.342 59.8951 230.729 59.7505L231.047 59.6947C231.561 59.3456 232.093 59.0234 232.64 58.7293C232.76 58.7293 232.752 58.7293 232.752 58.7293C233.241 58.2662 233.754 57.8294 234.289 57.4208C234.416 57.4208 234.377 57.3809 234.377 57.3809C234.751 56.8703 235.125 56.3597 235.619 55.7054L236.089 55.1071L236.886 53.639C237.499 57.2213 239.212 59.4713 242.732 60.301C242.938 60.3684 243.148 60.4191 243.361 60.4526C245.257 60.1016 247.153 59.7505 249.24 59.3276L249.933 59.0484C251.191 57.8596 252.45 56.6549 253.828 55.4581C253.939 55.4581 253.923 55.4102 253.923 55.4102C254.159 54.89 254.465 54.4042 254.831 53.9661C254.967 53.8305 255.524 54.1337 255.97 54.397L256.289 55.0512C256.42 55.1532 256.542 55.2652 256.655 55.3863L257.229 56.1443C258.766 57.1495 260.311 58.1548 262.008 59.2479C262.295 59.3995 262.406 59.4473 262.518 59.4952C265.178 59.7984 267.839 60.1016 270.762 60.4047H271.471C273.064 59.9579 274.601 59.5112 276.345 59.0324C276.443 59.0141 276.541 59.0008 276.64 58.9926C276.935 58.8011 277.238 58.6096 277.7 58.3383L278.385 58.0511C278.679 57.825 278.984 57.6146 279.301 57.4208H279.412C279.778 57.1017 280.145 56.7746 280.655 56.3597L281.085 56.1123C281.666 55.4661 282.24 54.8198 282.925 54.1417C283.036 54.1417 283.012 54.0858 283.012 54.0858C283.172 53.7826 283.331 53.4795 283.602 53.0486C283.674 52.9707 283.74 52.8881 283.801 52.8013C283.841 52.5567 283.895 52.3143 283.96 52.0753C284.001 51.873 284.022 51.6673 284.024 51.4609C283.874 51.2118 283.746 50.9502 283.642 50.679ZM117.487 17.8637C117.994 16.6146 118.621 15.4176 119.359 14.2894C119.853 13.6511 120.84 13.3958 121.613 12.9729C121.892 13.7708 122.449 14.6564 122.41 15.4702C122.263 16.8956 121.969 18.3019 121.533 19.6669C119.829 25.7065 116.659 30.9324 112.421 36.1184C113.446 29.8679 115.145 23.7473 117.487 17.8637ZM201.122 43.8096C201.457 44.0386 201.698 44.3807 201.802 44.7733C201.906 45.1659 201.865 45.5828 201.687 45.9478C200.564 48.4929 199.569 51.1178 198.207 53.5273C197.227 55.2666 195.363 55.7693 193.427 55.2188C191.627 54.7081 190.99 53.1124 190.871 51.5008C190.417 45.7484 191.11 40.1794 194.017 35.0573C195.076 33.1743 196.574 31.8659 198.844 31.802C200.963 31.9058 201.632 33.2063 201.926 34.7381C201.947 34.9911 201.907 35.2454 201.81 35.4799C201.714 35.7144 201.562 35.9223 201.369 36.0865C198.971 37.5465 198.398 41.2485 201.106 43.8096H201.122ZM238.718 36.6928C238.104 41.6794 237.212 46.6021 234.313 50.8865C233.901 51.5725 233.342 52.1587 232.677 52.6029C232.012 53.047 231.257 53.3382 230.466 53.4555C227.877 53.2241 226.818 52.3385 226.483 50.0727C225.691 45.1802 226.779 40.1688 229.526 36.0466C231.207 33.5094 233.708 32.4722 236.145 33.1105C238.065 33.6211 238.917 34.7301 238.702 36.6928H238.718ZM269.838 32.1212C272.14 31.1239 273.597 31.8898 274.02 34.3232C273.645 38.0173 271.495 40.1315 268.635 41.6155C267.146 42.4134 265.521 42.916 263.904 43.5782C263.29 39.7486 266.628 33.5094 269.822 32.1212H269.838Z" fill="white"/>
<path d="M138.141 22.1561C138.718 22.0247 139.283 21.8431 139.829 21.6136C141.189 20.938 142.251 19.7833 142.813 18.3712C143.374 16.9591 143.395 15.389 142.872 13.9623C141.956 11.824 139.089 10.7709 136.333 11.4969C133.147 12.3745 131.052 15.5978 131.681 18.5499C132.27 21.3024 134.74 22.6986 138.141 22.1561Z" fill="white"/>
</g>
<defs>
<clipPath id="clip0_11_197">
<rect width="284" height="74" fill="white"/>
</clipPath>
</defs>
</svg>
