<svg width="284" height="96" viewBox="0 0 284 96" fill="none" xmlns="http://www.w3.org/2000/svg">
<g clip-path="url(#clip0_11_344)">
<path d="M283.642 50.679C283.461 50.4203 283.256 50.1798 283.028 49.961L282.057 49.7296C281.961 49.7179 281.865 49.7179 281.77 49.7296C281.677 49.8346 281.57 49.9259 281.451 50.0009C281.364 50.0009 281.356 50.0009 281.356 50.0009C281.356 50.1205 281.284 50.2083 281.093 50.2881C281.053 50.2967 281.013 50.2967 280.973 50.2881C280.631 50.6232 280.28 50.9663 279.802 51.3971C279.689 51.5126 279.549 51.6 279.396 51.6524C278.249 52.2827 277.102 52.913 275.732 53.5752L275.087 53.663C272.618 54.6682 270.244 54.2853 267.862 53.0805C267.807 52.9688 267.783 52.9928 267.783 52.9928C265.608 52.2508 264.597 50.5115 263.952 48.469C263.864 48.1898 264.358 47.735 264.82 47.352H265.489C265.923 47.2141 266.364 47.0996 266.811 47.009C267.241 46.9691 267.448 46.9371 267.663 46.9052C267.812 46.8106 267.977 46.7431 268.149 46.7058L268.755 46.6499C271.335 45.5569 273.908 44.4638 276.6 43.3628H276.728C277.001 43.1165 277.297 42.8974 277.612 42.7086C277.723 42.7086 277.7 42.7086 277.7 42.7086C278.496 41.8549 279.332 41.0012 280.28 39.9959C280.639 39.4853 280.87 39.1183 281.077 38.7592C281.109 38.6111 281.162 38.4686 281.236 38.3364C281.295 38.2638 281.349 38.1864 281.395 38.105C282.096 35.5599 282.24 33.0626 280.686 30.5973C280.686 30.4776 280.686 30.4856 280.686 30.4856C280.351 30.2068 280.034 29.9056 279.739 29.584C279.739 29.4803 279.691 29.4963 279.691 29.4963C279.285 29.225 278.894 28.9617 278.416 28.5947C278.416 28.483 278.361 28.507 278.361 28.507C271.662 25.6507 265.616 26.9751 259.969 31.5547C259.77 31.7462 259.682 31.8021 259.579 31.818C259.413 32.0577 259.215 32.2726 258.989 32.4563C258.878 32.4563 258.91 32.4563 258.91 32.4563C258.758 32.6797 258.607 32.8951 258.336 33.2541C258.065 33.6132 257.954 33.6291 257.834 33.7568C257.834 33.8764 257.834 33.9722 257.603 34.1477C257.372 34.3232 257.38 34.427 257.277 34.4669C256.99 34.9695 256.703 35.4721 256.321 36.0625C256.225 36.1184 256.209 36.1104 256.209 36.1104C255.843 36.9641 255.477 37.8178 255.015 38.8151C254.919 38.9667 254.847 39.1023 254.847 39.1023C254.829 39.2639 254.789 39.4223 254.728 39.573L254.592 39.7725C254.425 40.5704 254.25 41.4161 254.011 42.4373C253.943 42.6434 253.89 42.8541 253.852 43.0676C253.852 44.5995 253.939 46.1393 253.852 47.6712C253.722 48.3801 253.451 49.0556 253.055 49.6578C252.936 49.6977 252.968 49.7296 252.968 49.7296C252.044 50.8306 251.12 51.9237 250.076 53.0167C249.957 53.0167 249.965 53.0167 249.965 53.0167C248.993 53.1523 247.83 53.6789 247.121 53.3119C246.412 52.9449 246.054 51.6604 246.07 50.7907C246.206 48.9656 246.472 47.1525 246.866 45.3654C246.97 45.0064 247.002 44.8627 247.033 44.7191C247.615 41.3602 248.196 37.9933 248.857 34.4349C248.969 34.0839 249.001 33.9403 249.033 33.8046C249.718 29.8793 250.411 25.9618 251.175 21.837C251.287 21.4859 251.319 21.3423 251.359 21.1987C251.486 20.2652 251.621 19.3318 251.836 18.1988C251.956 17.8557 251.988 17.7121 252.028 17.5685C252.267 16.0845 252.513 14.6005 252.824 12.8772C252.886 12.449 252.92 12.0173 252.928 11.5847C252.832 11.3214 252.737 11.0581 252.617 10.6273C252.617 10.4597 252.561 10.3161 252.561 10.3161C249.957 7.771 246.986 8.40131 243.744 9.28691C243.597 9.37499 243.463 9.48232 243.346 9.60604C243.346 9.66189 243.346 9.71774 243.346 9.96507C243.346 10.2124 243.346 10.4518 243.298 10.6033C243.353 10.8358 243.38 11.0743 243.377 11.3134C243.314 11.6166 243.298 11.7602 243.274 11.9118C243.274 12.5102 243.21 13.1165 243.091 13.9383C242.963 14.4011 242.923 14.6404 242.876 14.8798C242.525 16.8106 242.183 18.7414 241.76 20.8796C241.657 21.2386 241.617 21.3822 241.585 21.5258C241.235 23.4566 240.892 25.3874 240.462 27.5176C240.392 27.7216 240.334 27.9294 240.287 28.1399C240.247 28.6107 240.207 29.0734 240.143 29.6878C239.012 28.9458 238.073 28.3235 236.957 27.5974C236.874 27.529 236.783 27.4701 236.687 27.4219C233.394 26.6311 229.929 27.006 226.881 28.483H226.754C225.957 29.0335 225.161 29.5761 224.229 30.1266C224.102 30.1266 224.125 30.1266 224.125 30.1266C224.05 30.2353 223.955 30.3298 223.847 30.4058C223.813 30.4143 223.777 30.4143 223.743 30.4058C223.042 31.1478 222.341 31.8898 221.545 32.6797C221.505 32.702 221.462 32.7181 221.417 32.7276C221.353 32.8669 221.273 32.9981 221.178 33.1185C221.035 33.3259 220.955 33.3977 220.836 33.4297C220.461 34.052 220.039 34.6823 219.585 35.4482L219.123 36.0466C218.762 36.7235 218.366 37.3812 217.936 38.0173C217.825 38.0173 217.833 38.0173 217.833 38.0173C216.805 38.8151 215.77 39.5332 214.575 40.331L214.288 40.3869L211.899 41.5038V37.371C211.899 36.9721 211.899 36.8205 211.899 36.6769C211.349 35.3285 210.808 33.9722 210.25 32.4962C210.25 32.3765 210.25 32.3845 210.25 32.3845C210.001 32.1115 209.78 31.8149 209.589 31.4989C209.589 31.3792 209.589 31.4111 209.589 31.4111C209.071 30.9164 208.561 30.4218 207.996 29.8154C207.996 29.7117 207.996 29.7197 207.996 29.7197C203.089 26.3528 197.84 26.257 192.217 28.0841L191.922 28.1399C191.412 28.4431 190.903 28.7543 190.265 29.0575C190.146 29.0575 190.162 29.0575 190.162 29.0575L188.178 30.5734C187.931 30.717 187.836 30.7728 187.732 30.8207C187.629 30.8686 187.661 31.0122 187.485 31.092C187.441 31.0989 187.395 31.0989 187.35 31.092C186.553 31.9616 185.757 32.8313 184.897 33.7488C184.785 33.7887 184.817 33.8046 184.817 33.8046C184.22 34.8738 183.614 35.9429 182.913 37.1476C182.81 37.2832 182.73 37.4109 182.73 37.4109C182.595 37.8178 182.459 38.2087 182.236 38.7752C182.176 38.8668 182.123 38.9628 182.077 39.0624C181.703 40.9852 181.32 42.908 180.89 45.0782C180.819 46.1233 180.803 46.9132 180.795 47.6951C180.778 48.0696 180.722 48.4413 180.627 48.8041L180.46 49.0115C180.309 49.3449 180.13 49.6651 179.926 49.9689C179.823 49.9689 179.823 50.0168 179.823 50.0168C179.568 50.4237 179.313 50.8147 178.931 51.3891C178.636 51.7082 178.461 51.8838 178.286 52.0673C177.95 52.4124 177.596 52.74 177.226 53.0486C176.876 53.2002 176.7 53.2561 176.517 53.3199C175.645 53.3157 174.775 53.2491 173.913 53.1204C173.913 52.9928 173.849 53.0167 173.849 53.0167C173.666 51.7801 173.228 50.5195 173.363 49.3227C173.658 46.7297 174.255 44.1686 174.797 41.3921C174.9 41.0411 174.932 40.8975 174.964 40.7539C175.195 38.5119 175.569 36.278 175.609 34.036C175.681 30.0468 173.164 27.398 169.181 27.0629C166.515 26.8202 163.854 27.5889 161.726 29.217C161.595 29.3287 161.444 29.4129 161.28 29.4644C160.698 29.9909 160.109 30.5255 159.424 31.0601L159.32 31.1C159.078 31.4704 158.812 31.8249 158.524 32.1611C158.42 32.209 158.42 32.2329 158.42 32.2329C158.28 32.4604 158.126 32.6789 157.958 32.8871C157.654 33.1397 157.335 33.3741 157.003 33.5892C157.003 31.81 157.003 30.3978 157.003 28.9139V28.7703C156.206 28.2756 155.338 27.7809 154.326 27.1746C154.125 27.0999 153.921 27.036 153.713 26.9831C152.407 27.1028 151.1 27.2304 149.794 27.3341C148.488 27.4379 147.922 28.0283 148.042 29.3766C148.054 30.1652 147.973 30.9524 147.803 31.7223C147.715 32.0813 147.691 32.2329 147.667 32.3765C147.532 33.31 147.396 34.2435 147.181 35.3844C147.07 35.7354 147.038 35.879 147.006 36.0147C146.21 40.0039 146.313 44.1606 144.218 47.9105C144.107 47.9584 144.123 47.9743 144.123 47.9743C144.06 48.142 143.98 48.3025 143.884 48.4531L143.167 49.3147C142.115 50.4716 141.223 51.8519 139.981 52.7135C139.515 52.9911 138.993 53.1616 138.453 53.2127C137.913 53.2637 137.368 53.1941 136.858 53.0087C136.245 52.7135 136.165 51.2455 135.903 50.2881C135.896 49.9408 135.961 49.5959 136.094 49.2748C136.163 49.0653 136.222 48.8523 136.269 48.6366C136.747 45.9398 137.217 43.2431 137.766 40.331C137.878 39.9799 137.91 39.8363 137.942 39.7007C138.085 38.9029 138.22 38.0412 138.428 37.012C138.531 36.6689 138.563 36.5253 138.595 36.3817C138.778 34.052 138.953 31.7302 139.144 29.241C139.144 29.0734 139.144 29.1053 139.144 29.1053C138.213 28.475 137.289 27.8527 136.165 27.1586C135.831 27.0629 135.688 27.031 135.544 26.999C133.864 27.2304 132.175 27.4698 130.319 27.7969C130.163 27.8778 130.02 27.9828 129.897 28.108C129.738 30.1346 129.57 32.1691 129.331 34.403C129.228 34.7621 129.204 34.9057 129.172 35.0573C128.375 38.8869 127.579 42.7086 126.719 46.5941C126.599 46.6499 126.623 46.6659 126.623 46.6659C126.447 46.9897 126.251 47.3016 126.034 47.5994L125.938 47.6472C125.864 47.801 125.748 47.9309 125.604 48.0222C124.054 50.5987 121.609 52.511 118.738 53.3917C114.946 54.5645 111.983 52.8492 111.497 49.1472C111.322 47.2257 111.322 45.2922 111.497 43.3708C111.622 42.7893 111.946 42.2699 112.413 41.9027C117.454 37.5053 121.614 32.1876 124.672 26.2331C126.536 22.5072 128.025 18.6297 127.914 14.3771C127.746 7.50771 122.218 4.42804 116.348 7.9944C114.79 8.94674 113.436 10.1997 112.365 11.6804C105.332 21.5418 102.433 32.8233 101.485 44.7112C101.19 48.3812 99.0953 50.9024 96.411 52.9688C96.0128 53.2249 95.5591 53.3817 95.0879 53.4262C94.6168 53.4706 94.1418 53.4013 93.7029 53.2241C93.0497 52.8332 92.8506 51.6285 92.5718 50.695C92.5217 50.2547 92.5652 49.8088 92.6993 49.3865C93.6391 44.1766 94.5153 38.9587 95.5508 33.7647C96.5863 28.5708 95.1924 26.64 89.2503 27.1267C88.6427 27.1168 88.0416 27.2536 87.498 27.5256C86.9492 27.871 86.5575 28.4181 86.4067 29.0495C86.092 34.6189 84.9205 40.1062 82.9339 45.3175C81.8864 47.6745 80.5657 49.8998 78.9991 51.9476C78.0034 53.3518 76.0599 53.7587 75.0165 53.1045C73.6305 52.2428 73.5668 50.8705 73.8137 49.4344C74.2518 46.8813 74.674 44.3282 75.1359 41.7751C75.7015 38.6236 76.3626 35.4881 76.8644 32.3366C77.4299 28.7463 76.0679 27.0948 72.4198 27.0708C71.1032 27.0859 69.7931 27.2573 68.5168 27.5815C68.2697 27.6994 68.0534 27.8733 67.8847 28.0892C67.7161 28.3052 67.5998 28.5574 67.5451 28.8261C67.0751 31.7622 66.7486 34.7142 66.3105 37.6582C65.514 43.0836 64.6617 48.477 60.1295 52.3385C58.9506 53.3358 57.955 54.5326 56.8 55.5299C51.4952 60.2053 45.5929 63.7317 38.48 64.7051C32.992 65.4551 27.6553 65.136 22.9876 61.6893C16.8146 57.1495 14.6321 50.6312 14.9587 43.3788C15.1511 37.7023 16.4766 32.1219 18.8569 26.9669C21.2373 21.8118 24.6243 17.1865 28.8182 13.3639C33.1513 9.2869 38.2251 6.60615 44.4619 7.12475C47.648 7.39602 50.1172 9.29488 50.7146 11.9118C51.2801 14.3931 49.918 17.2254 47.2656 18.8371C46.6749 19.1448 46.1978 19.6336 45.904 20.2321C45.6102 20.8307 45.5152 21.5076 45.6328 22.1641C45.7126 23.1047 46.0532 24.0041 46.6162 24.7612C47.1791 25.5182 47.942 26.1026 48.8188 26.4485C53.128 28.3554 58.1382 26.1533 60.225 21.4301C63.897 13.1165 59.6914 4.23655 50.6668 1.3324C43.7769 -0.877623 36.9108 -0.263282 30.2201 2.08238C21.8013 5.14008 14.4615 10.6016 9.10772 17.792C3.75394 24.9824 0.620822 33.5865 0.0955808 42.541C-0.517741 54.6363 3.90296 64.3301 14.8711 70.1703C23.354 74.6861 32.3946 74.8377 41.5466 72.2926C47.8551 70.5294 53.0962 66.963 57.8275 62.535C57.9125 62.3955 58.0141 62.2669 58.1302 62.152C58.6798 61.6653 59.1019 61.2824 59.5161 60.8994C59.5683 60.7834 59.6412 60.678 59.7312 60.5882C59.8109 60.5882 59.8268 60.5882 59.8268 60.5882C59.8856 60.4722 59.9637 60.3669 60.0578 60.2771H60.1454C60.1957 60.1559 60.275 60.049 60.3764 59.9659C60.464 59.9659 60.4401 59.9659 60.4401 59.9659C60.4926 59.8439 60.5748 59.7369 60.6791 59.6548C60.7667 59.6548 60.7507 59.6069 60.7507 59.6069C60.9533 59.277 61.1796 58.9624 61.4278 58.6654L61.8101 58.3303C61.857 58.2071 61.9336 58.0975 62.0331 58.0112C62.1208 58.0112 62.1048 57.9713 62.1048 57.9713L64.2793 54.7799C65.4343 56.232 66.5574 57.6442 67.7124 59.1761C67.7124 59.2878 67.7681 59.2638 67.7681 59.2638L70.7391 60.2053C70.9511 60.2683 71.1665 60.3189 71.3843 60.3569C73.0491 60.1095 74.7217 59.8622 76.5299 59.6229C76.6732 59.6229 76.6573 59.6229 76.6573 59.6229C77.1689 59.2675 77.7008 58.9425 78.2503 58.6495C78.3698 58.6495 78.3539 58.6495 78.3539 58.6495C79.3814 57.5724 80.4089 56.4953 81.54 55.3863C81.6515 55.3863 81.6276 55.3305 81.6276 55.3305L82.7985 53.2241C83.834 55.0751 84.8615 56.9261 85.9208 58.8888C85.9208 59.0005 85.9766 58.9766 85.9766 58.9766C87.4672 59.8207 89.141 60.2873 90.8526 60.336C92.5642 60.3846 94.2618 60.0139 95.7977 59.2558L96.4907 58.9686C96.7709 58.7255 97.0752 58.5116 97.3987 58.3303C97.5182 58.3303 97.4943 58.3303 97.4943 58.3303C98.7449 56.9261 99.9954 55.5219 101.373 54.0619C101.493 54.014 101.437 54.006 101.437 54.006C101.66 53.6151 101.875 53.2082 102.154 52.7135C102.903 54.1098 103.524 55.2826 104.153 56.591C104.153 56.7187 104.153 56.6788 104.153 56.6788C104.284 56.7811 104.409 56.8903 104.528 57.0059L105.117 57.724C105.254 57.7943 105.382 57.8799 105.499 57.9793C105.706 58.1389 105.77 58.2186 105.81 58.3303C106.13 58.5098 106.436 58.7125 106.726 58.9367C106.774 59.0325 106.782 59.0324 106.782 59.0324C107.019 59.1099 107.25 59.2032 107.475 59.3117C107.777 59.5032 107.945 59.5909 108.104 59.6867C108.813 59.8542 109.522 60.0298 110.43 60.2771C110.637 60.3409 110.847 60.3942 111.059 60.4366C113.927 60.4366 116.77 60.325 119.622 59.0644L119.948 59.0085C120.055 58.8973 120.182 58.8078 120.323 58.7452L120.617 58.6734L126.305 54.2055C126.918 55.4182 127.595 56.7586 128.296 58.1947C128.296 58.3303 128.296 58.2984 128.296 58.2984C128.411 58.3621 128.508 58.4558 128.575 58.5697C128.575 58.6575 128.614 58.6415 128.614 58.6415C129.037 58.9048 129.459 59.1601 130 59.5271L130.231 59.6947C132.697 60.5366 135.372 60.5366 137.838 59.6947C139.925 58.3303 141.821 57.0219 143.748 55.6416C143.748 55.9049 143.748 56.2081 143.748 56.5113C143.748 59.0165 144.481 59.95 146.934 60.1654C148.53 60.2829 150.135 60.2106 151.714 59.95C152.012 59.8377 152.279 59.6563 152.494 59.4205C152.708 59.1847 152.864 58.9014 152.948 58.5936C153.323 56.8703 153.442 55.0991 153.745 53.3678C154.541 48.6685 155.513 44.0011 158.006 39.8922C159.262 37.975 160.777 36.2407 162.506 34.7381C162.91 34.488 163.367 34.3354 163.839 34.2924C164.312 34.2495 164.789 34.3174 165.231 34.4908C165.732 34.7062 166.027 36.0147 165.963 36.7966C165.828 38.6077 165.414 40.3869 165.167 42.182C164.665 45.6127 163.932 49.0355 163.757 52.4901C163.542 56.7267 165.924 59.6707 169.643 60.2691C171.241 60.5801 172.889 60.5096 174.454 60.0632C176.019 59.6168 177.458 58.8072 178.652 57.7001C179.887 56.5671 180.938 55.2347 182.069 53.9981C182.184 54.0353 182.292 54.092 182.388 54.1656C182.535 54.3292 182.669 54.5054 182.786 54.6922C183.63 56.0872 184.757 57.2885 186.095 58.2178C187.433 59.1471 188.952 59.7835 190.552 60.0856C195.01 61.0516 199.668 60.2935 203.591 57.9633C203.987 57.6154 204.405 57.2929 204.842 56.9979C204.961 56.9979 204.945 56.9979 204.945 56.9979C205.011 56.882 205.101 56.7814 205.208 56.7027H205.296C206.092 55.8411 206.889 54.9794 207.829 54.0858C207.94 54.0858 207.916 54.03 207.916 54.03C208.713 52.53 209.549 51.0221 210.473 49.4663C210.569 49.4105 210.553 49.3865 210.553 49.3865C211.028 48.1438 211.584 46.9338 212.217 45.7643L212.791 45.6925C213.301 45.493 213.803 45.2936 214.48 45.0622C214.572 45.0568 214.665 45.0568 214.758 45.0622C215.029 44.8787 215.284 44.6713 215.555 44.5117C215.888 44.3748 216.228 44.2576 216.574 44.1606C216.24 49.5541 216.224 54.748 220.796 58.6176C220.836 58.7293 220.852 58.7133 220.852 58.7133C221.146 58.8649 221.449 59.0165 221.879 59.2878C222.174 59.5112 222.333 59.6149 222.485 59.7266C224.372 59.95 226.26 60.1654 228.411 60.3808C228.984 60.3329 229.287 60.293 229.598 60.2531C229.964 60.063 230.342 59.8951 230.729 59.7505L231.047 59.6947C231.561 59.3456 232.093 59.0234 232.64 58.7293C232.76 58.7293 232.752 58.7293 232.752 58.7293C233.241 58.2662 233.754 57.8294 234.289 57.4208C234.416 57.4208 234.377 57.3809 234.377 57.3809C234.751 56.8703 235.125 56.3597 235.619 55.7054L236.089 55.1071L236.886 53.639C237.499 57.2213 239.212 59.4713 242.732 60.301C242.938 60.3684 243.148 60.4191 243.361 60.4526C245.257 60.1016 247.153 59.7505 249.24 59.3276L249.933 59.0484C251.191 57.8596 252.45 56.6549 253.828 55.4581C253.939 55.4581 253.923 55.4102 253.923 55.4102C254.16 54.89 254.465 54.4042 254.831 53.9661C254.967 53.8305 255.524 54.1337 255.97 54.397L256.289 55.0512C256.42 55.1532 256.542 55.2652 256.655 55.3863L257.229 56.1443C258.766 57.1495 260.311 58.1548 262.008 59.2479C262.295 59.3995 262.406 59.4473 262.518 59.4952C265.178 59.7984 267.839 60.1016 270.762 60.4047H271.471C273.064 59.958 274.601 59.5112 276.345 59.0324C276.443 59.0141 276.541 59.0008 276.64 58.9926C276.935 58.8011 277.238 58.6096 277.7 58.3383L278.385 58.0511C278.679 57.825 278.984 57.6146 279.301 57.4208H279.412C279.778 57.1017 280.145 56.7746 280.655 56.3597L281.085 56.1123C281.666 55.4661 282.24 54.8198 282.925 54.1417C283.036 54.1417 283.012 54.0858 283.012 54.0858C283.172 53.7826 283.331 53.4795 283.602 53.0486C283.674 52.9707 283.74 52.8881 283.801 52.8013C283.841 52.5567 283.895 52.3143 283.96 52.0753C284.001 51.873 284.022 51.6673 284.024 51.4609C283.874 51.2118 283.746 50.9502 283.642 50.679ZM117.487 17.8637C117.994 16.6146 118.621 15.4176 119.359 14.2894C119.853 13.6511 120.84 13.3958 121.613 12.9729C121.892 13.7708 122.449 14.6564 122.41 15.4702C122.263 16.8956 121.969 18.3019 121.533 19.6669C119.829 25.7065 116.659 30.9324 112.421 36.1184C113.446 29.8679 115.145 23.7473 117.487 17.8637ZM201.122 43.8096C201.457 44.0386 201.698 44.3807 201.802 44.7733C201.906 45.1659 201.865 45.5828 201.687 45.9478C200.564 48.4929 199.569 51.1178 198.207 53.5273C197.227 55.2666 195.363 55.7693 193.427 55.2188C191.627 54.7081 190.99 53.1124 190.871 51.5008C190.417 45.7484 191.11 40.1794 194.017 35.0573C195.076 33.1743 196.574 31.8659 198.844 31.802C200.963 31.9058 201.632 33.2063 201.926 34.7381C201.947 34.9911 201.907 35.2454 201.81 35.4799C201.714 35.7144 201.562 35.9223 201.369 36.0865C198.971 37.5465 198.398 41.2485 201.106 43.8096H201.122ZM238.718 36.6928C238.104 41.6794 237.212 46.6021 234.313 50.8865C233.901 51.5725 233.342 52.1587 232.677 52.6029C232.012 53.047 231.257 53.3382 230.466 53.4555C227.877 53.2241 226.818 52.3385 226.483 50.0727C225.691 45.1802 226.779 40.1688 229.526 36.0466C231.207 33.5094 233.708 32.4722 236.145 33.1105C238.065 33.6211 238.917 34.7301 238.702 36.6928H238.718ZM269.838 32.1212C272.14 31.1239 273.597 31.8898 274.02 34.3232C273.645 38.0173 271.495 40.1315 268.635 41.6155C267.146 42.4134 265.521 42.916 263.904 43.5782C263.29 39.7486 266.628 33.5094 269.822 32.1212H269.838Z" fill="white"/>
<path d="M138.141 22.1561C138.718 22.0247 139.283 21.8431 139.829 21.6136C141.189 20.938 142.251 19.7833 142.813 18.3712C143.374 16.9591 143.395 15.389 142.872 13.9623C141.956 11.824 139.089 10.7709 136.333 11.4969C133.147 12.3745 131.052 15.5978 131.681 18.5499C132.27 21.3024 134.74 22.6986 138.141 22.1561Z" fill="white"/>
</g>
<path d="M98.7422 88.2578H100.891C100.833 89.0182 100.622 89.6927 100.258 90.2812C99.8932 90.8646 99.3854 91.3229 98.7344 91.6562C98.0833 91.9896 97.2943 92.1562 96.3672 92.1562C95.6536 92.1562 95.0104 92.0312 94.4375 91.7812C93.8698 91.526 93.3828 91.1641 92.9766 90.6953C92.5755 90.2214 92.2682 89.6536 92.0547 88.9922C91.8411 88.3255 91.7344 87.5781 91.7344 86.75V85.8828C91.7344 85.0547 91.8438 84.3073 92.0625 83.6406C92.2812 82.974 92.5938 82.4062 93 81.9375C93.4115 81.4635 93.9036 81.099 94.4766 80.8438C95.0547 80.5885 95.7005 80.4609 96.4141 80.4609C97.3411 80.4609 98.125 80.6328 98.7656 80.9766C99.4062 81.3151 99.9036 81.7812 100.258 82.375C100.612 82.9688 100.826 83.651 100.898 84.4219H98.75C98.7083 83.9427 98.6042 83.5365 98.4375 83.2031C98.276 82.8698 98.0312 82.6172 97.7031 82.4453C97.3802 82.2682 96.9505 82.1797 96.4141 82.1797C95.9974 82.1797 95.6302 82.2578 95.3125 82.4141C95 82.5703 94.7396 82.8047 94.5312 83.1172C94.3229 83.4245 94.1667 83.8099 94.0625 84.2734C93.9583 84.7318 93.9062 85.263 93.9062 85.8672V86.75C93.9062 87.3281 93.9531 87.8464 94.0469 88.3047C94.1406 88.763 94.2865 89.151 94.4844 89.4688C94.6823 89.7865 94.9375 90.0286 95.25 90.1953C95.5625 90.362 95.9349 90.4453 96.3672 90.4453C96.8932 90.4453 97.3203 90.362 97.6484 90.1953C97.9818 90.0286 98.2344 89.7839 98.4062 89.4609C98.5833 89.138 98.6953 88.737 98.7422 88.2578ZM107.43 89.9922V83.5469H109.508V92H107.555L107.43 89.9922ZM107.695 88.2422L108.336 88.2266C108.336 88.7943 108.273 89.3177 108.148 89.7969C108.023 90.276 107.828 90.6927 107.562 91.0469C107.302 91.3958 106.971 91.6693 106.57 91.8672C106.169 92.0599 105.695 92.1562 105.148 92.1562C104.732 92.1562 104.352 92.099 104.008 91.9844C103.664 91.8646 103.367 91.6797 103.117 91.4297C102.872 91.1745 102.682 90.849 102.547 90.4531C102.411 90.0521 102.344 89.5703 102.344 89.0078V83.5469H104.406V89.0234C104.406 89.3047 104.438 89.5391 104.5 89.7266C104.568 89.9141 104.659 90.0677 104.773 90.1875C104.893 90.3021 105.031 90.3854 105.188 90.4375C105.349 90.4844 105.521 90.5078 105.703 90.5078C106.203 90.5078 106.596 90.4089 106.883 90.2109C107.174 90.0078 107.383 89.737 107.508 89.3984C107.633 89.0547 107.695 88.6693 107.695 88.2422ZM113.523 80V92H111.453V80H113.523ZM117.68 83.5469V92H115.609V83.5469H117.68ZM115.469 81.3359C115.469 81.0286 115.573 80.7734 115.781 80.5703C115.995 80.3672 116.281 80.2656 116.641 80.2656C117 80.2656 117.284 80.3672 117.492 80.5703C117.706 80.7734 117.812 81.0286 117.812 81.3359C117.812 81.638 117.706 81.8906 117.492 82.0938C117.284 82.2969 117 82.3984 116.641 82.3984C116.281 82.3984 115.995 82.2969 115.781 82.0938C115.573 81.8906 115.469 81.638 115.469 81.3359ZM121.672 85.3516V92H119.609V83.5469H121.547L121.672 85.3516ZM121.344 87.4688H120.734C120.74 86.8542 120.823 86.2969 120.984 85.7969C121.146 85.2969 121.372 84.8672 121.664 84.5078C121.961 84.1484 122.312 83.8724 122.719 83.6797C123.125 83.487 123.578 83.3906 124.078 83.3906C124.484 83.3906 124.852 83.4479 125.18 83.5625C125.508 83.6771 125.789 83.8594 126.023 84.1094C126.263 84.3594 126.445 84.6875 126.57 85.0938C126.701 85.4948 126.766 85.9896 126.766 86.5781V92H124.688V86.5625C124.688 86.1771 124.63 85.8724 124.516 85.6484C124.406 85.4245 124.245 85.2656 124.031 85.1719C123.823 85.0781 123.565 85.0312 123.258 85.0312C122.94 85.0312 122.661 85.0964 122.422 85.2266C122.188 85.3516 121.99 85.526 121.828 85.75C121.672 85.974 121.552 86.2318 121.469 86.5234C121.385 86.8151 121.344 87.1302 121.344 87.4688ZM133.242 90.2031V86.3047C133.242 86.0182 133.193 85.7708 133.094 85.5625C132.995 85.3542 132.844 85.1927 132.641 85.0781C132.438 84.9635 132.18 84.9062 131.867 84.9062C131.591 84.9062 131.349 84.9531 131.141 85.0469C130.938 85.1406 130.781 85.2734 130.672 85.4453C130.562 85.612 130.508 85.8047 130.508 86.0234H128.438C128.438 85.6745 128.521 85.3438 128.688 85.0312C128.854 84.7135 129.091 84.4323 129.398 84.1875C129.711 83.9375 130.083 83.7422 130.516 83.6016C130.953 83.4609 131.443 83.3906 131.984 83.3906C132.625 83.3906 133.195 83.5 133.695 83.7188C134.201 83.9323 134.596 84.2552 134.883 84.6875C135.174 85.1198 135.32 85.6641 135.32 86.3203V90.0078C135.32 90.4297 135.346 90.7917 135.398 91.0938C135.456 91.3906 135.539 91.6484 135.648 91.8672V92H133.547C133.448 91.7865 133.372 91.5156 133.32 91.1875C133.268 90.8542 133.242 90.526 133.242 90.2031ZM133.531 86.8516L133.547 88.0781H132.242C131.919 88.0781 131.635 88.112 131.391 88.1797C131.146 88.2422 130.945 88.3359 130.789 88.4609C130.633 88.5807 130.516 88.7266 130.438 88.8984C130.359 89.0651 130.32 89.2552 130.32 89.4688C130.32 89.6771 130.367 89.8646 130.461 90.0312C130.56 90.1979 130.701 90.3307 130.883 90.4297C131.07 90.5234 131.289 90.5703 131.539 90.5703C131.904 90.5703 132.221 90.4974 132.492 90.3516C132.763 90.2005 132.974 90.0182 133.125 89.8047C133.276 89.5911 133.357 89.388 133.367 89.1953L133.961 90.0859C133.888 90.2995 133.779 90.526 133.633 90.7656C133.487 91.0052 133.299 91.2292 133.07 91.4375C132.841 91.6458 132.565 91.8177 132.242 91.9531C131.919 92.0885 131.544 92.1562 131.117 92.1562C130.57 92.1562 130.081 92.0469 129.648 91.8281C129.216 91.6094 128.875 91.3099 128.625 90.9297C128.375 90.5495 128.25 90.1172 128.25 89.6328C128.25 89.1849 128.333 88.7891 128.5 88.4453C128.667 88.1016 128.914 87.8125 129.242 87.5781C129.57 87.3385 129.977 87.1589 130.461 87.0391C130.951 86.9141 131.51 86.8516 132.141 86.8516H133.531ZM139.242 85.2734V92H137.18V83.5469H139.133L139.242 85.2734ZM141.812 83.4922L141.781 85.4141C141.667 85.3932 141.536 85.3776 141.391 85.3672C141.25 85.3568 141.117 85.3516 140.992 85.3516C140.674 85.3516 140.396 85.3958 140.156 85.4844C139.917 85.5677 139.716 85.6901 139.555 85.8516C139.398 86.013 139.279 86.2109 139.195 86.4453C139.112 86.6745 139.065 86.9349 139.055 87.2266L138.609 87.1719C138.609 86.6354 138.664 86.138 138.773 85.6797C138.883 85.2214 139.042 84.8203 139.25 84.4766C139.458 84.1328 139.719 83.8672 140.031 83.6797C140.349 83.487 140.714 83.3906 141.125 83.3906C141.24 83.3906 141.362 83.401 141.492 83.4219C141.628 83.4375 141.734 83.4609 141.812 83.4922ZM145.562 91.0625L147.828 83.5469H150.039L146.648 93.2812C146.57 93.4896 146.469 93.7161 146.344 93.9609C146.224 94.2057 146.062 94.4375 145.859 94.6562C145.656 94.8802 145.401 95.0625 145.094 95.2031C144.792 95.3438 144.424 95.4141 143.992 95.4141C143.805 95.4141 143.638 95.401 143.492 95.375C143.346 95.349 143.193 95.3151 143.031 95.2734V93.7266C143.083 93.7318 143.143 93.7344 143.211 93.7344C143.284 93.7396 143.346 93.7422 143.398 93.7422C143.701 93.7422 143.951 93.7057 144.148 93.6328C144.346 93.5651 144.505 93.4531 144.625 93.2969C144.75 93.1458 144.854 92.9479 144.938 92.7031L145.562 91.0625ZM144.445 83.5469L146.359 89.7734L146.695 91.9531L145.273 92.2109L142.219 83.5469H144.445ZM164.32 80.625V92H162.164L157.328 84.1094V92H155.18V80.625H157.328L162.18 88.5234V80.625H164.32ZM165.984 87.8594V87.6953C165.984 87.0755 166.073 86.5052 166.25 85.9844C166.427 85.4583 166.685 85.0026 167.023 84.6172C167.362 84.2318 167.776 83.9323 168.266 83.7188C168.755 83.5 169.312 83.3906 169.938 83.3906C170.573 83.3906 171.135 83.5 171.625 83.7188C172.12 83.9323 172.536 84.2318 172.875 84.6172C173.214 85.0026 173.471 85.4583 173.648 85.9844C173.826 86.5052 173.914 87.0755 173.914 87.6953V87.8594C173.914 88.474 173.826 89.0443 173.648 89.5703C173.471 90.0911 173.214 90.5469 172.875 90.9375C172.536 91.3229 172.122 91.6224 171.633 91.8359C171.143 92.0495 170.583 92.1562 169.953 92.1562C169.328 92.1562 168.768 92.0495 168.273 91.8359C167.779 91.6224 167.362 91.3229 167.023 90.9375C166.685 90.5469 166.427 90.0911 166.25 89.5703C166.073 89.0443 165.984 88.474 165.984 87.8594ZM168.047 87.6953V87.8594C168.047 88.2292 168.083 88.5755 168.156 88.8984C168.229 89.2214 168.341 89.5052 168.492 89.75C168.643 89.9948 168.839 90.1875 169.078 90.3281C169.323 90.4635 169.615 90.5312 169.953 90.5312C170.286 90.5312 170.573 90.4635 170.812 90.3281C171.052 90.1875 171.247 89.9948 171.398 89.75C171.555 89.5052 171.669 89.2214 171.742 88.8984C171.815 88.5755 171.852 88.2292 171.852 87.8594V87.6953C171.852 87.3307 171.815 86.9896 171.742 86.6719C171.669 86.349 171.555 86.0651 171.398 85.8203C171.247 85.5703 171.049 85.375 170.805 85.2344C170.565 85.0885 170.276 85.0156 169.938 85.0156C169.604 85.0156 169.318 85.0885 169.078 85.2344C168.839 85.375 168.643 85.5703 168.492 85.8203C168.341 86.0651 168.229 86.349 168.156 86.6719C168.083 86.9896 168.047 87.3307 168.047 87.6953ZM180.484 90.2031V80H182.562V92H180.688L180.484 90.2031ZM175.055 87.875V87.7109C175.055 87.0651 175.128 86.4792 175.273 85.9531C175.424 85.4219 175.643 84.9661 175.93 84.5859C176.216 84.2057 176.562 83.9115 176.969 83.7031C177.38 83.4948 177.846 83.3906 178.367 83.3906C178.872 83.3906 179.312 83.4922 179.688 83.6953C180.068 83.8984 180.391 84.1875 180.656 84.5625C180.927 84.9375 181.143 85.3828 181.305 85.8984C181.466 86.4089 181.583 86.9714 181.656 87.5859V88.0312C181.583 88.6302 181.466 89.1797 181.305 89.6797C181.143 90.1797 180.927 90.6172 180.656 90.9922C180.391 91.362 180.068 91.6484 179.688 91.8516C179.307 92.0547 178.862 92.1562 178.352 92.1562C177.836 92.1562 177.372 92.0495 176.961 91.8359C176.555 91.6224 176.208 91.3229 175.922 90.9375C175.641 90.5521 175.424 90.099 175.273 89.5781C175.128 89.0573 175.055 88.4896 175.055 87.875ZM177.125 87.7109V87.875C177.125 88.2396 177.156 88.5807 177.219 88.8984C177.281 89.2161 177.383 89.4974 177.523 89.7422C177.664 89.9818 177.844 90.1693 178.062 90.3047C178.286 90.4401 178.557 90.5078 178.875 90.5078C179.281 90.5078 179.615 90.4193 179.875 90.2422C180.141 90.0599 180.346 89.8125 180.492 89.5C180.638 89.1823 180.732 88.8255 180.773 88.4297V87.2031C180.753 86.8906 180.698 86.6016 180.609 86.3359C180.526 86.0703 180.406 85.8411 180.25 85.6484C180.099 85.4557 179.911 85.3047 179.688 85.1953C179.464 85.0859 179.198 85.0312 178.891 85.0312C178.573 85.0312 178.302 85.1016 178.078 85.2422C177.854 85.3776 177.672 85.5677 177.531 85.8125C177.391 86.0573 177.286 86.3411 177.219 86.6641C177.156 86.987 177.125 87.3359 177.125 87.7109ZM188.227 92.1562C187.586 92.1562 187.01 92.0521 186.5 91.8438C185.99 91.6354 185.555 91.3464 185.195 90.9766C184.841 90.6016 184.568 90.1667 184.375 89.6719C184.188 89.1719 184.094 88.6354 184.094 88.0625V87.75C184.094 87.099 184.188 86.5078 184.375 85.9766C184.562 85.4401 184.828 84.9792 185.172 84.5938C185.516 84.2083 185.927 83.9115 186.406 83.7031C186.885 83.4948 187.414 83.3906 187.992 83.3906C188.591 83.3906 189.12 83.4922 189.578 83.6953C190.036 83.8932 190.419 84.1745 190.727 84.5391C191.034 84.9036 191.266 85.3411 191.422 85.8516C191.578 86.3568 191.656 86.9167 191.656 87.5312V88.3984H185.031V86.9766H189.625V86.8203C189.615 86.4922 189.552 86.1927 189.438 85.9219C189.323 85.6458 189.146 85.4271 188.906 85.2656C188.667 85.099 188.357 85.0156 187.977 85.0156C187.669 85.0156 187.401 85.0833 187.172 85.2188C186.948 85.349 186.76 85.5365 186.609 85.7812C186.464 86.0208 186.354 86.3073 186.281 86.6406C186.208 86.974 186.172 87.3438 186.172 87.75V88.0625C186.172 88.4167 186.219 88.7448 186.312 89.0469C186.411 89.349 186.555 89.612 186.742 89.8359C186.935 90.0547 187.164 90.2266 187.43 90.3516C187.701 90.4714 188.008 90.5312 188.352 90.5312C188.784 90.5312 189.174 90.4479 189.523 90.2812C189.878 90.1094 190.185 89.8568 190.445 89.5234L191.484 90.6016C191.307 90.862 191.068 91.112 190.766 91.3516C190.469 91.5911 190.109 91.7865 189.688 91.9375C189.266 92.0833 188.779 92.1562 188.227 92.1562Z" fill="white"/>
<defs>
<clipPath id="clip0_11_344">
<rect width="284" height="74" fill="white"/>
</clipPath>
</defs>
</svg>
