<svg width="50" height="50" viewBox="0 0 50 50" fill="none" xmlns="http://www.w3.org/2000/svg">
<rect x="0.5" y="0.5" width="49" height="49" rx="24.5" stroke="#55ACEE"/>
<path fill-rule="evenodd" clip-rule="evenodd" d="M20.548 34.5999C29.6044 34.5999 34.558 27.2122 34.558 20.8063C34.558 20.596 34.558 20.3873 34.5436 20.1794C35.5072 19.4941 36.3388 18.6433 37 17.6698C36.1024 18.0621 35.1484 18.3193 34.1728 18.4327C35.2 17.8266 35.9692 16.8744 36.3376 15.7509C35.3704 16.3156 34.3132 16.7142 33.2104 16.928C31.3456 14.9763 28.2268 14.8817 26.2432 16.7177C24.9652 17.9015 24.4216 19.6665 24.8188 21.3501C20.86 21.154 17.1712 19.3133 14.6704 16.2853C13.3636 18.5005 14.032 21.3333 16.1956 22.7558C15.412 22.7333 14.6452 22.5256 13.96 22.1499V22.2114C13.9612 24.5188 15.6136 26.5056 17.9104 26.9628C17.1856 27.1577 16.4248 27.186 15.688 27.0454C16.3324 29.0208 18.1816 30.3738 20.2876 30.4128C18.544 31.762 16.39 32.4946 14.1724 32.4923C13.7812 32.4911 13.39 32.4686 13 32.4226C15.2524 33.845 17.872 34.5999 20.548 34.5964" fill="#55ACEE"/>
</svg>
